<svg width="102" height="52" viewBox="0 0 102 52" fill="none" xmlns="http://www.w3.org/2000/svg">
<path d="M39.1151 14.8218C39.2426 14.397 39.4974 13.5481 39.3874 12.4616C39.2774 11.375 38.8021 10.0483 37.7831 8.82768C36.764 7.60701 35.1999 6.49043 33.7637 5.72877C32.3274 4.96709 31.0186 4.56012 29.559 4.47285C28.0994 4.38555 26.4898 4.618 24.8794 5.08908C23.2691 5.56008 21.6596 6.2691 20.0318 7.23442C18.404 8.19974 16.7598 9.42023 15.3579 10.7926C13.9561 12.165 12.7982 13.6877 11.9118 15.1765C11.0255 16.6652 10.4118 18.1181 9.97151 19.6185C9.53119 21.119 9.2649 22.6649 9.10268 24.0489C8.94042 25.433 8.8826 26.6535 9.05649 27.9912C9.2302 29.3289 9.63551 30.7818 10.2727 32.5031C10.9099 34.2244 11.7784 36.2124 12.9948 38.0324C14.2112 39.8525 15.7748 41.5035 17.5993 42.8176C19.4238 44.1317 21.5087 45.1085 23.281 45.7945C25.0532 46.4806 26.5129 46.876 28.1691 46.9748C29.8255 47.0736 31.6793 46.8758 33.3991 46.2653C35.119 45.6548 36.7064 44.6312 38.2409 43.4976C39.7754 42.364 41.2586 41.1193 42.0809 40.2763C42.903 39.4332 43.0653 38.9912 43.1061 38.5766C43.1469 38.162 43.0663 37.7732 42.6254 37.2016C42.1843 36.6299 41.3808 35.8726 40.7544 35.4163C40.1279 34.96 39.6774 34.8038 39.7349 34.4746C39.7923 34.1453 40.3577 33.6436 41.1805 33.5905C42.0033 33.5375 43.0848 33.9322 43.9937 34.5158C44.9025 35.0994 45.6399 35.8726 46.1313 36.5631C46.6227 37.2537 46.8684 37.8622 46.9422 38.5611C47.0161 39.26 46.9177 40.0491 46.6229 40.9128C46.3279 41.7765 45.8368 42.7131 44.6405 43.8895C43.4441 45.066 41.5453 46.4793 39.4727 47.6636C37.4001 48.8478 35.1566 49.8013 32.7645 50.4017C30.3724 51.0021 27.8341 51.2487 25.3602 51.1994C22.8862 51.1501 20.4788 50.8048 18.2901 50.1748C16.1015 49.5447 14.1062 48.6177 12.1157 47.3842C10.1252 46.1507 8.12691 44.605 6.44772 42.7959C4.76852 40.9868 3.40892 38.9148 2.4015 36.6782C1.39406 34.4417 0.73878 32.0405 0.36206 29.7465C-0.0146598 27.4525 -0.112969 25.265 0.140972 23.1109C0.394913 20.9568 1.00118 18.8348 1.7874 16.837C2.57363 14.8393 3.54043 12.9639 4.84255 11.1307C6.14465 9.29739 7.78336 7.50427 9.58504 5.9916C11.3867 4.47893 13.3531 3.24513 15.3349 2.32442C17.3167 1.40368 19.3159 0.795025 21.2731 0.433336C23.2303 0.0716465 25.1476 -0.0435074 26.9901 0.0140697C28.8327 0.0717094 30.6024 0.301938 32.3467 0.762325C34.091 1.22271 35.8114 1.91361 37.2938 2.744C38.7761 3.57437 40.0212 4.54479 41.217 5.50679C42.4128 6.46879 43.5596 7.42266 44.3213 8.05578C45.083 8.6889 45.4598 9.00139 45.6563 9.2067C45.8529 9.41199 45.8692 9.51062 44.8739 10.5842C43.8786 11.6577 41.8891 13.6876 40.7915 14.7239C39.6939 15.7602 39.4975 15.793 39.3496 15.7517C39.2017 15.7104 39.1037 15.5957 39.0515 15.4989C38.9992 15.402 38.993 15.3241 38.9899 15.2853C38.9878 15.2465 38.9878 15.2465 39.1153 14.8218H39.1151Z" fill="#E5ECF0"/>
<path d="M99.2433 43.4858C99.0634 43.4775 98.703 43.4612 98.0389 43.0991C97.3747 42.7369 96.4097 42.031 95.3773 40.9616C94.3448 39.8923 93.248 38.4625 92.3469 37.3523C91.4458 36.242 90.7417 35.453 89.6928 34.7784C88.644 34.1038 87.2526 33.5451 86.0893 33.2654C84.9259 32.9857 83.9926 32.9857 83.1322 33.142C82.2719 33.2982 81.4863 33.6104 80.8061 33.9641C80.126 34.3178 79.553 34.7123 79.0368 35.1235C78.5207 35.5347 78.0621 35.9622 77.7999 36.2336C77.5377 36.5051 77.4722 36.6202 77.0715 37.195C76.6707 37.7697 75.9324 38.8074 75.0561 39.7775C74.1798 40.7477 73.1641 41.6522 72.386 42.2442C71.608 42.8362 71.0674 43.1158 70.6743 43.2967C70.2812 43.4775 70.0356 43.5598 69.757 43.5927C69.4784 43.6257 69.1676 43.6094 68.774 43.4035C68.3804 43.1978 67.9062 42.8039 67.2586 42.2196C66.6111 41.6354 65.793 40.8634 64.9737 40.0491C64.1543 39.2347 63.3358 38.3802 62.4427 37.5165C61.5496 36.6528 60.5838 35.7819 59.5315 35.1063C58.4792 34.4308 57.3434 33.9525 56.0037 33.7128C54.664 33.473 53.1258 33.473 51.5233 33.8112C49.9208 34.1494 48.2577 34.8253 47.4092 35.1883C46.5608 35.5512 46.5281 35.6005 46.3729 35.7564C46.2177 35.9121 45.9385 36.176 45.7337 36.3898C45.5288 36.6035 45.3979 36.7679 45.2749 36.9406C45.1519 37.1133 45.0373 37.2942 44.7802 37.6622C44.523 38.0301 44.1244 38.5836 44.1044 39.0997C44.0836 39.6159 44.4444 40.0901 44.6913 40.4168C44.9381 40.7435 45.0719 40.9227 45.2797 41.1657C45.4875 41.4086 45.7689 41.7151 46.0575 41.7023C46.346 41.6897 46.6421 41.358 46.9618 40.8884C47.2815 40.4188 47.6257 39.8101 47.9041 39.3333C48.1825 38.8565 48.3955 38.5112 48.8624 37.9931C49.3293 37.475 50.05 36.7844 50.607 36.2828C51.1641 35.7811 51.557 35.4688 51.9913 35.1973C52.4256 34.9259 52.8998 34.6961 53.2689 34.5643C53.6381 34.4325 53.8997 34.3998 54.2276 34.4658C54.5556 34.5318 54.9484 34.696 55.4973 35.058C56.0463 35.4199 56.7502 35.9787 57.5285 36.7436C58.3068 37.5086 59.1582 38.4784 60.1986 39.4982C61.2391 40.518 62.4669 41.5862 63.5976 42.4169C64.7284 43.2477 65.7595 43.8392 66.6363 44.2011C67.5132 44.563 68.2333 44.6945 68.9216 44.7603C69.6099 44.8261 70.2649 44.826 71.0676 44.7026C71.8703 44.5792 72.82 44.3327 73.5655 44.0942C74.311 43.8556 74.8516 43.6254 75.564 43.0663C76.2765 42.5072 77.1611 41.6191 78.1522 40.4763C79.1432 39.3334 80.2407 37.9355 81.1499 36.8666C82.0591 35.7976 82.7789 35.0586 83.2792 34.6469C83.7795 34.2353 84.0575 34.1532 84.3773 34.1368C84.6971 34.1201 85.0572 34.1698 85.5733 34.6551C86.0893 35.1405 86.7607 36.0611 87.8502 37.3933C88.9397 38.7255 90.4456 40.4673 91.5848 41.6191C92.7239 42.7709 93.4934 43.3297 94.4437 43.7326C95.3941 44.1355 96.5236 44.382 97.4905 44.5136C98.4573 44.6452 99.2592 44.6616 99.7427 44.6205C100.226 44.5794 100.39 44.4804 100.382 44.3821C100.374 44.2839 100.193 44.1849 100.103 44.1355C100.013 44.0862 99.4232 43.4941 99.4232 43.4941C99.4232 43.4941 99.4233 43.494 99.2433 43.4857V43.4858Z" fill="#D5DFE6"/>
<path d="M99.0348 34.447C98.8549 34.4553 98.4945 34.4716 97.8303 34.8337C97.1662 35.1958 96.2012 35.9019 95.1688 36.9712C94.1363 38.0405 93.0395 39.4703 92.1384 40.5805C91.2373 41.6908 90.5332 42.4798 89.4843 43.1544C88.4355 43.829 87.0441 44.3877 85.8808 44.6674C84.7174 44.9471 83.7841 44.9471 82.9237 44.7908C82.0633 44.6346 81.2777 44.3224 80.5976 43.9687C79.9175 43.615 79.3445 43.2205 78.8283 42.8093C78.3121 42.3981 77.8536 41.9706 77.5914 41.6991C77.3292 41.4277 77.2637 41.3126 76.863 40.7378C76.4622 40.1631 75.7239 39.1254 74.8476 38.1553C73.9713 37.1852 72.9555 36.2806 72.1775 35.6886C71.3995 35.0966 70.8589 34.817 70.4658 34.6361C70.0727 34.4553 69.827 34.373 69.5484 34.3401C69.2698 34.3071 68.9591 34.3234 68.5655 34.5293C68.1719 34.735 67.6977 35.1289 67.0501 35.7132C66.4026 36.2975 65.5845 37.0694 64.7652 37.8837C63.9458 38.698 63.1273 39.5526 62.2342 40.4163C61.3411 41.2799 60.3753 42.151 59.323 42.8265C58.2707 43.502 57.1348 43.9802 55.7952 44.22C54.4555 44.4598 52.9173 44.4597 51.3148 44.1216C49.7123 43.7834 48.0492 43.1074 47.2007 42.7445C46.3523 42.3816 46.3196 42.3323 46.1644 42.1765C46.0092 42.0207 45.73 41.7568 45.5251 41.543C45.3204 41.3292 45.1894 41.1649 45.0664 40.9922C44.9435 40.8195 44.8288 40.6386 44.534 40.2357C44.2391 39.8328 43.7643 39.2081 43.4037 38.6488C43.0432 38.0895 42.7975 37.5961 42.4536 37.1275C42.1096 36.659 41.6672 36.2148 41.0776 35.7709C40.488 35.327 39.75 34.8824 39.1691 34.6524C38.5882 34.4225 38.1623 34.406 36.4939 35.1148C34.8256 35.8236 31.9149 37.2578 29.7346 38.3232C27.5542 39.3886 26.103 40.0859 25.3783 40.2789C24.6536 40.4719 24.6529 40.1622 25.0096 39.6027C25.3664 39.0433 26.0784 38.2365 26.6668 37.4082C27.2552 36.5798 27.7189 35.7317 29.0552 34.9846C30.3915 34.2375 32.5914 33.595 34.3822 33.2494C36.1729 32.9038 37.5432 32.8574 38.8439 32.9164C40.1446 32.9753 41.3727 33.1398 42.3312 33.3701C43.2896 33.6004 43.9777 33.8964 44.6656 34.4965C45.3534 35.0967 46.0416 36.0014 46.5575 36.7577C47.0733 37.514 47.4175 38.1227 47.6959 38.5995C47.9743 39.0763 48.1873 39.4216 48.6542 39.9398C49.1211 40.4579 49.8418 41.1484 50.3988 41.6501C50.9559 42.1518 51.3488 42.464 51.7831 42.7355C52.2174 43.007 52.6916 43.2368 53.0607 43.3685C53.4299 43.5003 53.6915 43.5331 54.0194 43.4671C54.3474 43.4011 54.7402 43.2368 55.2891 42.8749C55.838 42.5129 56.542 41.9541 57.3203 41.1892C58.0986 40.4243 58.95 39.4545 59.9904 38.4347C61.0309 37.4149 62.2587 36.3467 63.3894 35.5159C64.5202 34.6852 65.5513 34.0936 66.4281 33.7317C67.305 33.3698 68.0251 33.2383 68.7134 33.1726C69.4017 33.1068 70.0567 33.1068 70.8594 33.2302C71.6621 33.3536 72.6118 33.6002 73.3573 33.8387C74.1028 34.0772 74.6434 34.3074 75.3558 34.8665C76.0683 35.4256 76.9529 36.3137 77.944 37.4566C78.935 38.5994 80.0325 39.9973 80.9417 41.0662C81.8509 42.1352 82.5707 42.8743 83.071 43.2859C83.5713 43.6976 83.8493 43.7797 84.1691 43.7961C84.4889 43.8128 84.8491 43.7631 85.3651 43.2777C85.8812 42.7923 86.5525 41.8717 87.642 40.5395C88.7315 39.2073 90.2374 37.4656 91.3766 36.3138C92.5157 35.162 93.2852 34.6031 94.2355 34.2002C95.1859 33.7973 96.3154 33.5508 97.2823 33.4192C98.2491 33.2877 99.051 33.2712 99.5345 33.3123C100.018 33.3534 100.182 33.4524 100.174 33.5507C100.166 33.6491 99.985 33.7479 99.8949 33.7974C99.8049 33.8467 99.2151 34.4387 99.2151 34.4387C99.2151 34.4387 99.2147 34.4388 99.0349 34.4471L99.0348 34.447Z" fill="#E5ECF0"/>
<path d="M23.2742 5.10692C22.842 5.11319 22.3296 5.13346 21.7735 5.18567C20.6612 5.29029 19.3765 5.52251 18.2237 5.86557C17.071 6.20863 16.0514 6.66222 14.9621 7.30198C13.8729 7.94174 12.7162 8.76693 11.5285 9.83705C10.3409 10.9072 9.12469 12.2197 8.12825 13.6445C7.13181 15.0693 6.35577 16.6037 5.84598 17.8016C5.33618 18.9995 5.09329 19.8603 4.87309 20.954C4.65289 22.0476 4.45589 23.3715 4.39794 24.715C4.3399 26.0585 4.42102 27.419 4.6527 28.8322C4.88441 30.2454 5.26653 31.7095 5.86318 33.2796C6.45981 34.8497 7.27065 36.5236 8.16266 37.9483C9.05467 39.3729 10.0276 40.5481 11.0759 41.6122C12.1243 42.6763 13.2475 43.6295 14.3827 44.3912C15.5179 45.1529 16.6652 45.7226 18.0087 46.2226C19.3523 46.7225 20.8927 47.1532 22.1379 47.4032C23.3831 47.6532 24.3335 47.722 25.0921 47.7162C25.8507 47.7099 26.4189 47.6297 26.7895 47.5716C27.1601 47.5136 27.3338 47.4783 27.4496 47.4551C27.5653 47.432 27.6235 47.4198 28.2311 47.1378C28.316 47.0984 28.4146 47.0487 28.5203 46.9856C28.3986 46.9814 28.2756 46.9793 28.1559 46.9731C26.4996 46.8743 25.04 46.4785 23.2678 45.7924C21.4955 45.1064 19.4108 44.1301 17.5863 42.816C15.7618 41.5019 14.1984 39.8509 12.982 38.0308C11.7656 36.2107 10.8972 34.2222 10.26 32.5009C9.62282 30.7796 9.21689 29.3275 9.04311 27.9898C8.8694 26.6521 8.927 25.4315 9.08926 24.0475C9.25152 22.6634 9.51758 21.1167 9.9579 19.6162C10.3982 18.1158 11.012 16.6629 11.8983 15.1742C12.7846 13.6855 13.9429 12.1628 15.3448 10.7905C16.7467 9.41811 18.3912 8.19764 20.019 7.23232C21.615 6.2859 23.1928 5.58905 24.7717 5.11814C24.6292 5.12441 24.5157 5.1223 24.2933 5.11604C24.0589 5.10977 23.7064 5.10142 23.2742 5.10769L23.2742 5.10692Z" fill="#D5DFE5"/>
<path d="M93.2611 19.8352C91.2296 20.3179 90.5933 22.2409 90.6875 23.9761L90.6565 29.3465L89.8029 29.3452V31.4399H101.027L101.023 29.3625L99.7889 29.3457L99.8255 21.3931C99.6959 20.8415 99.3209 20.0607 98.6816 19.8347L93.2611 19.8352ZM95.7659 21.9691C96.2677 21.9774 96.7109 22.0035 96.7109 22.0035C96.8787 22.0745 97.049 22.1677 97.2398 22.4676V29.3279H93.1569C93.1569 29.3279 93.1381 24.9553 93.1652 24.1145C93.1797 23.6735 93.2349 23.1472 93.5172 22.6852C93.7731 22.2665 94.2465 22.102 94.4692 22.037C94.7033 21.9687 95.2639 21.9601 95.7657 21.9691H95.7659ZM30.8635 31.0671H39.1247V28.7766H33.7139V26.7291H38.4841V24.2624H33.7139V22.3877H39.2475V19.9455L30.8623 19.9372L30.8635 31.0671ZM79.6142 31.0671H87.8753V28.7766H82.4645V26.7291H87.2347V24.2624H82.4645V22.3877H87.9982V19.9455L79.613 19.9372L79.6142 31.0671ZM77.2471 31.4041H74.5017V24.3073L72.4685 31.1418H70.5866L68.6199 24.3073V31.4041H66.0221V19.7303H69.7763L71.6383 26.9976L73.5624 19.7477L77.2471 19.731V31.4041ZM58.5261 19.6496C55.4998 19.6497 53.0466 22.2893 53.0467 25.5453C53.0466 28.8014 55.4998 31.4409 58.5261 31.441C61.5524 31.4409 64.0056 28.8014 64.0055 25.5453C64.0056 22.2893 61.5524 19.6497 58.5261 19.6496ZM58.5261 22.1652C60.1548 22.1651 61.4752 23.7559 61.4749 25.718C61.4747 27.6797 60.1545 29.2698 58.5261 29.2697C56.8977 29.2698 55.5775 27.6797 55.5773 25.718C55.577 23.7559 56.8974 22.1651 58.5261 22.1652ZM41.7096 19.9209V31.0553H44.1074L44.0949 26.3954H48.3691L48.3816 31.0902H50.6403V19.8987H48.26V24.3748H44.1421V19.8987L41.7096 19.9208V19.9209ZM22.3887 31.1599H25.6204V17.5546H30.6939V14.3452H22.3887V31.1599Z" fill="#D5DFE5"/>
<path d="M92.7699 19.2925C90.7384 19.7751 90.1021 21.6982 90.1963 23.4334L90.1653 28.8038L89.3117 28.8025V30.8972H100.536L100.532 28.8197L99.2977 28.803L99.3343 20.8503C99.2047 20.2988 98.8297 19.5179 98.1905 19.292L92.7699 19.2925ZM95.2747 21.4264C95.7765 21.4347 96.2196 21.4608 96.2196 21.4608C96.3875 21.5318 96.5578 21.625 96.7486 21.9249V28.7852H92.6656C92.6656 28.7852 92.6469 24.4126 92.674 23.5718C92.6885 23.1307 92.7436 22.6045 93.026 22.1425C93.2819 21.7237 93.7553 21.5593 93.978 21.4942C94.2121 21.426 94.7727 21.4174 95.2744 21.4264H95.2747ZM30.3723 30.5244H38.6334V28.2338H33.2227V26.1864H37.9928V23.7196H33.2227V21.8449H38.7563V19.4028L30.3711 19.3944L30.3723 30.5244ZM79.123 30.5244H87.3841V28.2338H81.9733V26.1864H86.7435V23.7196H81.9733V21.8449H87.507V19.4028L79.1218 19.3944L79.123 30.5244ZM76.7559 30.8614H74.0105V23.7646L71.9773 30.5991H70.0954L68.1287 23.7646V30.8614H65.5309V19.1875H69.2851L71.1471 26.4549L73.0712 19.205L76.7559 19.1882V30.8614ZM58.0349 19.1068C55.0086 19.1069 52.5554 21.7465 52.5555 25.0026C52.5554 28.2586 55.0086 30.8982 58.0349 30.8983C61.0612 30.8982 63.5144 28.2586 63.5143 25.0026C63.5144 21.7465 61.0612 19.1069 58.0349 19.1068ZM58.0349 21.6225C59.6636 21.6224 60.984 23.2131 60.9837 25.1753C60.9835 27.1369 59.6633 28.727 58.0349 28.7269C56.4065 28.727 55.0863 27.1369 55.0861 25.1753C55.0858 23.2131 56.4062 21.6224 58.0349 21.6225ZM41.2184 19.3782V30.5125H43.6162L43.6037 25.8527H47.8779L47.8904 30.5475H50.1491V19.356H47.7688V23.832H43.6509V19.356L41.2184 19.3781V19.3782ZM21.8975 30.6172H25.1292V17.0119H30.2027V13.8025H21.8975V30.6172Z" fill="#E5ECF0"/>
</svg>
